General
Complete name                    : C:\\Documents and Settings\\Bhushan\\Desktop\\Nasa HD Apollo 11 Moonwalk Montage Apollo 11\\Nasa_HD_Apollo_11_Moonwalk_Montage_Apollo_11.mov
Format                           : MPEG-4
Format profile                   : QuickTime
Codec ID                         : qt  
File size                        : 51.8 MiB
Duration                         : 2mn 0s
Overall bit rate                 : 3 613 Kbps
Movie name                       : Apollo 2 minute montage
Description                      : a two minute montage video showing Armstrong and Aldrin working on the moon
Encoded date                     : UTC 2009-07-14 21:54:30
Tagged date                      : UTC 2009-07-14 21:54:40
Writing library                  : Apple QuickTime

Video
ID                               : 1
Format                           : AVC
Format/Info                      : Advanced Video Codec
Format profile                   : Main@L3.2
Format settings, CABAC           : No
Format settings, ReFrames        : 2 frames
Format settings, GOP             : M=2, N=24
Codec ID                         : avc1
Codec ID/Info                    : Advanced Video Coding
Duration                         : 2mn 0s
Duration_LastFrame               : 233ms
Bit rate mode                    : Variable
Bit rate                         : 3 501 Kbps
Maximum bit rate                 : 5 333 Kbps
Width                            : 1 280 pixels
Height                           : 720 pixels
Display aspect ratio             : 16:9
Frame rate mode                  : Constant
Frame rate                       : 30.000 fps
Color space                      : YUV
Chroma subsampling               : 4:2:0
Bit depth                        : 8 bits
Scan type                        : Progressive
Bits/(Pixel*Frame)               : 0.127
Stream size                      : 50.2 MiB (97%)
Language                         : English
Encoded date                     : UTC 2009-07-14 21:54:30
Tagged date                      : UTC 2009-07-14 21:54:31
Color primaries                  : BT.709-5, BT.1361, IEC 61966-2-4, SMPTE RP177
Transfer characteristics         : BT.709-5, BT.1361
Matrix coefficients              : BT.709-5, BT.1361, IEC 61966-2-4 709, SMPTE RP177

Audio
ID                               : 3
Format                           : AAC
Format/Info                      : Advanced Audio Codec
Format profile                   : LC
Codec ID                         : 40
Duration                         : 2mn 0s
Bit rate mode                    : Constant
Bit rate                         : 99.9 Kbps
Nominal bit rate                 : 128 Kbps
Channel(s)                       : 2 channels
Channel positions                : Front: L R
Sampling rate                    : 48.0 KHz
Compression mode                 : Lossy
Stream size                      : 1.43 MiB (3%)
Language                         : English
Encoded date                     : UTC 2009-07-14 21:54:30
Tagged date                      : UTC 2009-07-14 21:54:31

Menu
ID                               : 2
Language                         : English
Encoded date                     : UTC 2009-07-14 21:54:30
Tagged date                      : UTC 2009-07-14 21:54:31
Bit rate mode                    : CBR

